<svg id="Capa_1" enable-background="new 0 0 512 512" height="512" viewBox="0 0 512 512" width="512" xmlns="http://www.w3.org/2000/svg"><g><path d="m399.5 246.703v-246.703h-287v246.702l106.399 106.399c9.91 9.909 23.086 15.367 37.101 15.367s27.191-5.458 37.101-15.367z"/><path d="m15.368 149.57 67.132 67.132v-96.702h-81.961c1.594 11.157 6.717 21.458 14.829 29.57z"/><path d="m496.632 482.43-145.216-145.217-37.102 37.102c-15.577 15.576-36.286 24.154-58.314 24.154s-42.738-8.578-58.314-24.154l-37.102-37.102-145.216 145.217c-8.112 8.112-13.235 18.413-14.829 29.57h510.923c-1.595-11.157-6.718-21.458-14.83-29.57z"/><path d="m429.5 216.703 67.132-67.132c8.111-8.112 13.235-18.413 14.829-29.57h-81.961z"/><path d="m139.372 316-139.372-139.372v278.743z"/><path d="m372.628 316 139.372 139.372v-278.743z"/></g></svg>